/* XPM */
static char *result[] = {
/* columns rows colors chars-per-pixel */
"64 64 131 2 ",
"   c #110F00",
".  c #151201",
"X  c #121109",
"o  c #0C1410",
"O  c #0E1914",
"+  c #201C04",
"@  c #201E10",
"#  c #14231C",
"$  c #1A271D",
"%  c #2C2604",
"&  c #2E2904",
"*  c #342D06",
"=  c #312C08",
"-  c #3F3808",
";  c #2D2A16",
":  c #36321A",
">  c #1B2E26",
",  c #1C3027",
"<  c #253424",
"1  c #21392E",
"2  c #2A3E29",
"3  c #3F3B20",
"4  c #233C31",
"5  c #254134",
"6  c #4C4506",
"7  c #4F490F",
"8  c #524B0B",
"9  c #585211",
"0  c #675F13",
"q  c #6E680E",
"w  c #766D17",
"e  c #736D1A",
"r  c #504C2A",
"t  c #686539",
"y  c #3A6147",
"u  c #3C6854",
"i  c #416347",
"p  c #43664F",
"a  c #496D4D",
"s  c #496E54",
"d  c #4C7654",
"f  c #4F775A",
"g  c #767342",
"h  c #487C64",
"j  c #8D7B06",
"k  c #4B8269",
"l  c #4D8E72",
"z  c #528D72",
"x  c #539074",
"c  c #539E7F",
"v  c #58997C",
"b  c #958206",
"n  c #95860B",
"m  c #9F8E09",
"M  c #9D8B14",
"N  c #A18E15",
"B  c #BEA607",
"V  c #9B8E3D",
"C  c #C9AF04",
"Z  c #CEB304",
"A  c #CBB109",
"S  c #D2B604",
"D  c #D2B70C",
"F  c #DAC11C",
"G  c #E4C604",
"H  c #EDCD01",
"J  c #EECF08",
"K  c #EED00F",
"L  c #F5D505",
"P  c #F9D907",
"I  c #F4D40C",
"U  c #F7D80D",
"Y  c #F9DA0B",
"T  c #E6CB1F",
"R  c #EED21F",
"E  c #F6D710",
"W  c #F7D813",
"Q  c #F9DB15",
"!  c #F4D71B",
"~  c #F7D918",
"^  c #FBDC1A",
"/  c #FFE11F",
"(  c #EFD321",
")  c #F5D820",
"_  c #FBDE23",
"`  c #F6DB2B",
"'  c #FFE121",
"]  c #FCE02F",
"[  c #FCE130",
"{  c #FCE33D",
"}  c #9F9240",
"|  c #9B9653",
" . c #A69F58",
".. c #C2B34D",
"X. c #CFBF57",
"o. c #F3DB40",
"O. c #F6DF49",
"+. c #E3D057",
"@. c #FDE442",
"#. c #FFE64A",
"$. c #FBE555",
"%. c #FFE850",
"&. c #FCE75F",
"*. c #FFE95D",
"=. c #D2C46A",
"-. c #E4D573",
";. c #EDDD73",
":. c #EEDF79",
">. c #FCE760",
",. c #FFEA62",
"<. c #FFEB6A",
"1. c #F6E67E",
"2. c #FFEE7F",
"3. c #5FA485",
"4. c #5EB28F",
"5. c #61A988",
"6. c #67B18F",
"7. c #69B593",
"8. c #6BB996",
"9. c #64BF99",
"0. c #6EBF9A",
"q. c #66C09A",
"w. c #6CC39D",
"e. c #71C49E",
"r. c #73C7A1",
"t. c #75C9A3",
"y. c #79CBA6",
"u. c #7CCCA9",
"i. c #81CEAB",
"p. c #84D0AC",
"a. c #FFEE81",
/* pixels */
"w.e.e.e.e.e.e.e.e.e.r.r.e.0.0.e.w.r.e.e.e.e.e.r.r.w.w.e.e.t.e.e.e.w.e.e.e.e.e.w.w.r.t.e.e.e.e.e.e.y.e.e.w.w.w.e.e.e.w.e.e.t.r.e.",
"e.r.r.u.y.u.t.r.r.i.u.u.r.9.w.w.r.r.r.r.r.r.u.y.u.r.r.r.u.u.u.t.q.w.q.r.r.r.r.t.r.u.u.y.t.t.r.t.u.u.y.w.w.q.e.r.r.r.r.r.y.u.y.y.",
"e.r.r.y.t.r.r.r.r.y.r.y.r.w.r.e.r.t.t.r.r.r.t.t.t.r.r.r.t.r.y.r.w.e.r.r.t.t.r.r.r.t.t.r.t.r.r.t.t.t.t.e.r.e.r.r.y.r.r.r.t.t.t.r.",
"e.r.r.r.r.r.r.r.r.r.r.r.r.r.r.r.y.u.u.t.r.r.r.r.r.r.r.r.r.r.r.r.r.r.r.t.y.u.t.r.r.r.r.r.r.r.r.r.t.r.r.r.r.r.t.u.u.y.r.r.r.r.r.r.",
"e.r.r.r.r.r.r.r.r.r.r.r.r.r.r.r.r.y.t.r.r.r.r.r.r.r.r.r.r.r.r.r.r.r.r.r.t.t.t.r.r.r.r.r.r.r.r.r.e.r.r.r.r.r.r.t.t.t.r.r.r.r.r.r.",
"e.r.r.r.r.r.r.r.r.r.r.r.r.r.r.r.r.r.r.r.r.r.r.r.r.r.r.r.r.t.r.r.r.r.r.r.r.r.r.r.r.r.r.r.r.r.r.r.r.t.r.r.r.r.r.r.r.r.r.r.r.r.r.r.",
"e.r.r.r.r.r.r.r.r.r.r.r.r.r.r.r.r.r.r.r.r.r.r.r.r.r.r.r.r.r.r.r.r.r.r.r.r.r.r.r.r.r.r.r.r.r.r.r.r.r.r.r.r.r.r.r.r.r.r.r.r.r.r.r.",
"e.r.r.r.r.r.r.r.r.r.r.r.r.r.r.r.w.q.q.r.r.r.r.r.r.r.r.r.r.r.r.r.r.r.r.w.w.q.e.r.r.r.r.r.r.r.r.r.r.r.r.r.r.r.e.w.q.w.r.r.r.r.r.r.",
"e.r.r.r.r.r.r.r.r.r.r.r.r.r.r.r.w.w.q.e.r.r.r.r.r.r.r.r.r.r.r.r.r.r.r.r.w.w.r.r.r.r.r.r.r.r.r.r.r.r.r.r.r.r.r.w.w.w.r.r.r.r.r.r.",
"e.r.t.r.r.r.r.r.r.r.r.r.r.r.r.y.u.u.t.t.r.r.r.r.r.r.r.r.r.r.r.r.r.r.r.u.u.t.r.r.r.r.r.r.r.r.r.r.r.r.r.r.r.r.y.y.t.t.r.r.r.r.r.r.",
"w.e.w.w.r.r.r.r.r.r.r.r.r.r.r.r.y.u.y.e.w.w.w.r.r.r.r.r.r.r.r.r.r.r.t.y.t.t.r.r.q.w.r.r.r.r.r.r.r.r.r.r.r.t.y.t.y.r.r.q.w.r.r.r.",
"w.w.w.w.r.r.r.r.w.e.e.r.r.r.r.r.t.e.t.e.w.w.w.r.r.r.r.w.w.r.r.r.r.r.r.r.r.r.r.w.q.q.r.r.r.r.r.w.r.r.r.r.r.r.r.r.t.r.w.q.w.w.r.r.",
"e.r.r.r.t.r.r.w.w.w.e.r.r.r.r.r.e.t.e.t.r.e.t.e.r.r.e.w.w.w.r.r.r.r.r.r.r.r.r.r.r.r.r.r.r.r.w.w.q.r.r.r.r.r.r.r.r.r.r.r.r.r.r.r.",
"e.r.r.y.u.u.t.r.r.r.r.r.r.r.r.r.t.e.t.e.t.t.t.i.u.t.r.r.r.r.r.r.r.r.r.r.r.r.r.r.r.t.y.u.t.r.r.r.r.r.r.r.r.r.r.r.r.r.r.r.t.y.i.t.",
"e.r.t.i.u.p.y.r.r.r.r.r.r.r.r.r.r.t.e.t.e.t.i.i.i.u.r.r.r.r.r.r.r.r.r.r.r.r.r.r.r.u.u.p.y.r.r.r.r.r.r.r.r.r.r.r.r.r.r.r.y.p.p.u.",
"e.t.e.t.r.r.r.r.r.r.r.r.r.r.r.r.r.r.t.e.t.e.t.t.t.r.r.r.r.r.r.r.r.r.r.r.r.r.r.r.r.r.t.y.r.r.r.r.r.r.r.r.r.r.r.r.r.r.r.r.r.r.r.t.",
"e.e.r.r.r.r.r.r.r.r.r.r.r.r.r.r.r.r.r.r.r.r.r.r.r.r.r.r.e.0.0.w.0.e.w.e.0.e.r.r.r.r.r.r.r.r.r.r.r.r.r.r.r.r.r.r.r.r.r.r.r.r.r.r.",
"e.t.r.r.t.r.r.r.r.r.t.r.r.r.r.r.r.r.r.r.r.r.r.t.r.r.r.r.h , , , > > > < > h r.t.r.r.y.r.r.r.r.r.t.t.r.r.w.r.r.r.r.r.r.r.r.y.t.r.",
"e.t.t.y.y.y.r.r.t.u.u.u.r.w.q.w.r.r.r.r.r.t.y.y.y.r.0.6.p @ @ @ @ @ @ X + i 6.0.r.y.u.u.r.r.r.y.u.u.y.w.q.q.r.r.r.r.r.r.y.u.y.y.",
"e.e.r.t.t.t.r.r.t.t.t.t.r.w.r.w.r.r.r.r.r.r.t.t.y.r.z O g -.-.-.-.-.-.+.T w O x r.r.r.y.r.r.r.r.y.t.t.w.r.r.r.t.t.r.r.r.t.t.t.r.",
"e.r.r.r.r.r.r.r.r.r.r.r.r.r.r.r.y.u.u.t.r.r.r.r.w.v f 3 } ,.>.>.&.>.>.#.' N - d v w.r.r.r.r.r.r.r.r.r.r.r.r.t.y.u.t.r.r.r.r.r.r.",
"e.r.r.r.r.r.r.r.r.r.r.r.r.r.r.r.t.t.t.t.r.r.r.r.3.o r 1.o.H H H H H H E ' _ ) 8 o 3.t.r.r.r.r.r.r.r.r.r.r.r.r.t.t.t.r.r.r.r.r.r.",
"e.r.r.r.r.r.r.r.r.t.r.r.r.r.r.r.e.t.r.r.t.e.w.k s t V O.` U U U U U E E E ^ _ M 0 a k w.r.r.r.r.r.r.r.r.r.r.r.r.r.r.r.r.r.r.r.r.",
"e.r.r.r.r.r.r.r.r.r.r.r.r.r.r.r.t.e.r.r.r.e.q.# ; :.$.H E ' ' ' _ ' ' ~ H U ' ' ( & # 8.r.r.r.r.r.r.r.r.r.r.r.r.r.r.r.r.r.r.r.r.",
"e.r.r.r.r.r.r.r.r.r.r.r.r.r.r.r.w.q.q.w.r.r.9.# ; :.$.H E ' #.*.*.#.' ^ H E ' ' R & # 9.e.r.r.r.r.r.r.r.r.r.r.w.q.w.r.r.r.r.r.r.",
"e.r.r.r.r.r.r.r.r.r.r.r.r.r.r.r.w.w.w.e.r.e.6.$ : ;.$.H ~ ' *.2.a.<.' ~ H E ' ' R * $ 6.e.r.r.r.r.r.r.r.r.r.r.w.w.w.r.r.r.r.r.r.",
"e.r.r.r.r.r.t.e.e.t.t.e.r.r.r.t.y.y.r.r.w.y 2  .X.( ! ^ @.<.{ ' _ ^ E W ^ U L ^ / A m < y r.r.r.r.r.r.r.r.r.t.y.t.r.r.r.r.r.r.r.",
"e.e.w.e.r.r.r.t.t.r.r.r.r.r.r.t.y.u.t.r.w.4 X =.<.J I ' %.2.] P Y Y L U ' E H ~ / Y Z   5 r.r.r.r.r.r.r.r.r.y.t.y.r.r.q.w.r.r.r.",
"w.q.e.q.r.r.e.e.w.w.t.e.t.e.r.r.r.r.r.r.q.5 X =.<.J I ^ %.2.[ Y Y P I Y ' E H Q ' Y C   5 e.r.w.r.r.r.r.r.r.r.r.t.r.w.q.q.r.r.r.",
"e.e.r.r.r.r.t.e.w.w.w.e.r.t.r.r.r.r.r.r.w.5 X =.<.J I / %.2.[ P Y Y L Y ' E H Q / Y C   5 w.q.w.q.r.r.r.r.r.r.r.r.r.r.r.r.r.r.r.",
"e.r.r.r.u.r.e.r.t.t.e.t.r.r.r.t.r.r.r.r.e.5 X =.<.J I / %.2.] P Y Y L W ' E H Q / Y C . 5 r.r.r.r.r.r.r.r.r.r.r.r.r.r.r.r.t.y.r.",
"e.r.r.i.i.i.t.r.e.t.t.e.r.r.r.r.r.r.r.r.r.5 X =.<.J I / %.2.] Y Y P L U ' E H Q / Y C . 5 e.r.r.r.r.r.r.r.r.r.r.r.r.r.r.t.y.p.u.",
"w.r.r.t.t.t.r.r.r.r.r.r.r.r.r.r.r.r.r.r.e.5 X =.<.J I / %.2.[ Y Y Y L Y ' E H Q / Y A   4 r.r.r.r.r.r.r.r.r.r.r.r.r.r.r.r.r.r.t.",
"e.r.r.r.r.r.r.r.r.r.r.r.r.r.r.r.t.r.r.r.t.5 X =.<.J K / %.2.[ P Y P L W ' E H ^ ' U Z   5 e.r.r.r.r.r.r.r.r.r.r.r.r.r.r.r.r.r.r.",
"e.r.r.r.t.r.r.r.r.r.y.r.r.r.r.r.e.r.r.r.e.5 X =.<.J I / %.2.] Y Y Y L Y ' E H Q / P C   5 r.r.e.r.r.r.r.r.r.r.r.r.r.r.r.r.t.r.r.",
"e.r.t.y.y.t.r.r.r.y.u.u.r.q.w.q.t.r.r.t.e.5 X =.<.J P / %.2.] Y Y P L Y ' E H Q ' Y C   5 r.r.y.u.u.y.w.w.q.r.r.r.r.r.r.t.u.u.t.",
"e.r.t.t.t.t.r.r.r.y.t.t.r.w.r.r.e.t.r.r.r.5 X =.<.J L / %.2.] P Y P I Y ' E H Q / Y Z   5 e.r.t.y.r.y.e.e.r.r.r.t.r.r.r.t.t.t.t.",
"e.r.r.r.r.r.r.r.r.r.r.r.r.r.r.r.u.u.u.t.e.5 X =.<.J I / %.a.[ Y Y Y L Y ' E H / / Y Z   5 r.r.r.r.r.r.r.r.r.t.u.u.t.r.r.r.r.r.r.",
"e.r.r.r.r.r.r.r.r.r.r.r.r.r.r.r.t.y.u.r.e.u 5 | ..K I Q { <.' L Y Y U E ^ U J W E B b 5 u e.r.r.r.r.r.r.r.r.r.r.t.u.r.r.r.r.r.r.",
"e.r.r.r.r.r.r.r.r.r.r.r.r.r.r.r.r.r.r.r.t.e.7.# = ( Q H E ' W L L P / Q H W ' Y G * $ 9.e.r.r.r.r.r.r.r.r.r.r.r.r.r.r.r.r.r.r.r.",
"e.r.r.r.r.r.t.r.r.r.r.r.r.r.r.r.r.e.t.r.r.r.8.# % ( ^ H E ' Q Q W Q / Q H U ' U G % # 8.r.r.r.r.r.r.r.r.r.r.r.r.r.r.r.r.r.r.r.r.",
"e.r.r.r.r.r.r.r.r.r.r.r.r.r.r.r.w.q.w.w.r.r.8.# % ( Q H I ' ' ' ' ' ' Q H E ' U G % # 8.r.r.r.r.r.r.r.r.r.r.w.w.9.w.r.r.r.r.r.r.",
"w.t.r.r.r.r.r.r.r.r.r.r.r.r.r.r.w.q.q.w.r.r.w.x d 9 n Y E U K I I I U E ~ E U j 8 d z e.r.r.r.r.r.r.r.r.r.r.w.w.q.w.r.r.r.r.r.r.",
"e.e.r.r.r.r.r.r.r.r.r.r.r.r.r.t.y.y.w.r.r.r.r.r.3.O 7 R K J H H H H H K / E G 6 O 5.t.e.r.r.r.r.r.r.r.r.r.r.t.t.t.r.r.r.r.r.r.r.",
"w.w.w.w.r.r.r.r.t.r.r.r.r.r.r.t.y.y.t.t.e.w.w.r.w.3.k * n / Y L L L L P Y b * d c q.t.e.t.e.r.r.r.r.r.r.r.r.u.r.u.r.r.q.w.r.r.r.",
"w.w.e.w.r.r.r.e.w.w.r.r.r.r.r.r.t.e.t.e.w.w.w.r.t.e.z # e F D S S Z Z Z S q # l q.w.e.e.t.t.r.w.r.r.r.r.r.r.r.r.r.r.w.q.w.w.r.r.",
"e.r.r.r.r.e.r.w.q.w.w.r.r.r.r.r.e.t.t.e.e.t.r.r.e.t.q.4.y . . . . . . . . i 8.w.e.t.e.e.e.e.q.w.q.r.r.r.r.r.r.r.r.r.r.r.r.r.r.r.",
"e.r.r.r.u.t.t.r.e.r.r.r.r.r.r.r.t.e.e.t.t.e.r.u.t.t.t.e.k 4 4 4 1 4 1 4 1 k r.r.e.t.u.y.t.r.e.r.r.r.r.r.r.r.r.r.r.r.r.r.r.t.u.r.",
"e.r.t.u.p.p.t.r.r.r.r.r.r.r.r.r.r.r.r.r.r.r.u.u.p.y.t.r.r.r.w.r.e.e.w.r.w.r.r.r.r.u.u.u.y.r.r.r.r.r.r.r.r.r.r.r.r.r.r.r.u.u.u.u.",
"e.r.t.t.t.t.e.r.r.r.r.r.r.r.r.r.r.r.r.r.r.r.r.t.y.t.r.r.r.r.r.r.t.r.r.r.r.r.r.r.r.t.t.y.r.r.r.r.r.r.r.r.r.r.r.r.t.r.r.r.w.t.y.y.",
"e.r.e.t.r.r.r.r.r.r.r.r.r.r.r.r.r.r.r.r.r.r.r.r.r.r.r.r.r.r.r.r.r.r.r.r.r.r.r.r.r.r.r.r.r.r.r.r.r.r.r.r.r.r.r.r.r.r.r.r.r.e.t.r.",
"e.r.r.r.t.r.r.r.r.r.t.r.r.r.r.r.r.r.r.r.r.r.r.t.r.r.r.r.r.t.r.r.r.r.r.r.r.r.r.r.r.r.r.r.r.r.r.r.r.t.r.r.w.r.r.r.r.r.r.r.r.t.t.r.",
"e.e.t.t.y.y.r.r.r.y.u.y.r.q.w.w.r.r.r.r.r.r.t.t.y.r.r.r.t.u.u.t.w.q.q.r.r.r.r.r.r.y.u.u.t.r.r.y.u.u.u.q.q.w.r.r.r.r.r.r.t.u.y.y.",
"e.t.t.t.t.t.r.r.r.t.y.y.r.w.e.w.t.t.t.r.r.t.y.t.t.r.r.r.t.t.t.r.w.r.r.r.r.t.r.r.r.t.t.r.r.r.r.t.u.t.t.w.r.w.r.r.t.r.r.r.t.t.t.t.",
"e.t.t.r.r.r.r.r.r.r.r.r.r.r.r.r.t.u.y.t.r.r.r.r.r.r.r.r.t.r.r.r.r.r.r.r.u.u.t.r.r.r.r.r.r.r.r.r.r.r.r.r.r.r.r.t.u.t.r.r.r.r.r.r.",
"e.e.e.t.r.r.r.r.r.r.r.r.t.r.r.r.t.t.y.t.r.r.r.r.r.r.t.r.r.r.r.r.r.r.r.r.t.t.t.r.r.r.r.r.r.r.r.r.r.r.r.r.r.r.t.u.t.t.r.r.r.r.r.r.",
"w.r.r.r.r.r.r.r.r.r.r.r.r.r.r.r.r.r.r.r.r.r.r.r.r.r.r.r.r.r.r.r.r.r.r.r.r.r.r.r.r.r.r.r.r.r.r.r.r.r.r.r.r.r.r.r.t.r.r.r.r.r.r.r.",
"e.r.r.r.r.r.r.r.r.r.r.r.r.r.r.r.r.r.r.r.r.r.r.r.r.r.t.r.r.r.r.r.r.r.r.r.r.r.r.r.r.r.r.r.r.r.r.r.r.r.r.r.r.r.r.r.r.r.r.r.r.r.r.r.",
"e.r.r.r.r.r.r.r.r.r.r.r.r.r.r.r.r.q.w.r.r.t.r.r.r.r.r.r.r.r.r.r.r.r.r.w.w.w.r.r.r.r.r.r.r.r.r.r.r.r.r.r.r.r.r.w.q.r.r.r.r.r.r.r.",
"e.r.r.r.r.r.r.r.r.r.r.r.r.t.r.r.q.q.9.w.r.r.r.r.r.r.r.r.r.r.r.r.r.r.r.r.w.q.w.r.r.r.r.r.r.r.r.r.r.r.r.r.r.r.w.w.q.w.r.r.r.r.r.r.",
"e.r.r.r.r.r.r.r.r.r.r.r.r.r.r.t.t.y.r.r.r.r.r.r.r.r.r.r.r.r.r.r.r.r.r.y.r.r.r.r.r.r.r.r.r.r.r.r.r.r.r.r.r.t.t.t.r.r.r.r.r.t.r.r.",
"e.e.w.r.r.r.r.r.r.r.r.r.r.r.r.t.y.t.t.r.r.w.w.r.r.r.r.r.r.r.r.r.r.r.r.y.y.y.r.r.q.w.r.r.r.r.r.r.r.t.r.r.r.r.y.t.u.r.r.q.w.w.r.r.",
"q.q.w.q.r.r.r.r.r.r.r.r.r.r.r.r.r.r.r.r.q.w.q.r.r.r.r.r.w.r.r.r.r.r.r.r.r.r.r.q.9.9.w.r.r.r.r.r.r.r.r.r.r.r.r.r.r.r.w.9.q.w.r.r.",
"e.r.w.r.r.r.r.w.q.q.r.r.r.r.r.r.r.r.r.r.r.r.r.r.r.r.r.q.w.w.r.r.r.r.r.r.r.r.r.w.r.r.r.r.r.r.q.q.w.r.r.r.r.r.r.r.r.r.r.w.r.r.r.r."
};
