/* XPM */
static char *result[] = {
/* columns rows colors chars-per-pixel */
"64 64 216 2 ",
"   c #6B201F",
".  c #423F3F",
"X  c #6B2122",
"o  c #712736",
"O  c #73293A",
"+  c #43403F",
"@  c #403E41",
"#  c #454444",
"$  c #484545",
"%  c #444C4B",
"&  c #4A4C4C",
"*  c #40554C",
"=  c #494C56",
"-  c #4A5557",
";  c #555558",
":  c #5A5B5D",
">  c #6D434A",
",  c #714F57",
"<  c #436F5C",
"1  c #4E5564",
"2  c #545B65",
"3  c #595D63",
"4  c #575C7C",
"5  c #6D5F6D",
"6  c #4A6663",
"7  c #576467",
"8  c #5D646B",
"9  c #477163",
"0  c #497665",
"q  c #447E65",
"w  c #497D66",
"e  c #4B7368",
"r  c #4A7E68",
"t  c #4E6971",
"y  c #526B71",
"u  c #5A6B75",
"i  c #646669",
"p  c #64676A",
"a  c #6A6B6E",
"s  c #666976",
"d  c #6E6E70",
"f  c #726F7D",
"g  c #6D7073",
"h  c #61707E",
"j  c #6C757D",
"k  c #727273",
"l  c #74767D",
"z  c #831D1D",
"x  c #852222",
"c  c #952C2C",
"v  c #893438",
"b  c #A52A29",
"n  c #AB2B2C",
"m  c #B62D2D",
"M  c #B82F2E",
"N  c #AB2F30",
"B  c #A83637",
"V  c #AC3F3B",
"C  c #BC3232",
"Z  c #B53B3A",
"A  c #BC3C3C",
"S  c #C2302F",
"D  c #C33434",
"F  c #CA3636",
"G  c #C23939",
"H  c #CD3A3A",
"J  c #D43837",
"K  c #D13D3D",
"L  c #A7433E",
"P  c #A23D40",
"I  c #8C4949",
"U  c #9E4044",
"Y  c #9E4A4F",
"T  c #894C54",
"R  c #9C4D53",
"E  c #8D525C",
"W  c #AA4946",
"Q  c #B74645",
"!  c #B1544E",
"~  c #996457",
"^  c #8A5A62",
"/  c #9A6A67",
"(  c #967565",
")  c #976872",
"_  c #8B737E",
"`  c #B3696D",
"'  c #C34343",
"]  c #CD4343",
"[  c #C44A49",
"{  c #CE4C4C",
"}  c #D24545",
"|  c #D34B4B",
" . c #CC5656",
".. c #D55353",
"X. c #D75A5A",
"o. c #D85E5E",
"O. c #D46666",
"+. c #DA6666",
"@. c #DA6868",
"#. c #DD7474",
"$. c #DE7878",
"%. c #478067",
"&. c #498067",
"*. c #4B8269",
"=. c #51856E",
"-. c #578676",
";. c #58957D",
":. c #5A9C7E",
">. c #7D9378",
",. c #858E76",
"<. c #82947A",
"1. c #657483",
"2. c #6A7A86",
"3. c #6A748B",
"4. c #6B768C",
"5. c #6D7D8D",
"6. c #737B84",
"7. c #6879A9",
"8. c #6970CD",
"9. c #6F73E0",
"0. c #897986",
"q. c #5C9F81",
"w. c #668C85",
"e. c #748D8E",
"r. c #768A9C",
"t. c #798A99",
"y. c #5EA183",
"u. c #65A58B",
"i. c #7BA789",
"p. c #6CBB99",
"a. c #77B694",
"s. c #76BA97",
"d. c #75BD9A",
"f. c #79BC9A",
"g. c #778DA0",
"h. c #798EA1",
"j. c #7C92A4",
"k. c #67C09A",
"l. c #6CC39D",
"z. c #71C39E",
"x. c #73C7A1",
"c. c #75C8A3",
"v. c #79CBA6",
"b. c #7BCCA9",
"n. c #738BCE",
"m. c #7682E6",
"M. c #7983EB",
"N. c #7F8EF0",
"B. c #7FA0FA",
"V. c #86868C",
"C. c #91908D",
"Z. c #8B8694",
"A. c #928796",
"S. c #918998",
"D. c #84939B",
"F. c #AC9496",
"G. c #80A78A",
"H. c #838DA5",
"J. c #868DA7",
"K. c #8695A9",
"L. c #859CAD",
"P. c #929CAD",
"I. c #869FB2",
"U. c #959DB6",
"Y. c #8BA2B3",
"T. c #8EA6B9",
"R. c #93A6B2",
"E. c #97A6B5",
"W. c #93A3BA",
"Q. c #93AABC",
"!. c #9AABBC",
"~. c #B2AFB1",
"^. c #A7B4BA",
"/. c #82C19F",
"(. c #86C2A1",
"). c #81CEAB",
"_. c #94AEC0",
"`. c #9DADC2",
"'. c #9DB5C4",
"]. c #A5AAC7",
"[. c #A6B7C4",
"{. c #A3B8C6",
"}. c #A6BCC9",
"|. c #A9BECA",
" X c #B9BCC9",
".X c #ADB9D3",
"XX c #818BEA",
"oX c #8896ED",
"OX c #929BEA",
"+X c #83A3FB",
"@X c #8BA9FB",
"#X c #95A6F1",
"$X c #9BB6FB",
"%X c #ADC2CD",
"&X c #B1C5CF",
"*X c #BCC6CC",
"=X c #AEC3D5",
"-X c #B2C6D0",
";X c #BCC9DB",
":X c #BFD4E5",
">X c #C0CEDA",
",X c #C5D3DC",
"<X c #CBD6DB",
"1X c #D1D4DF",
"2X c #D2D8D9",
"3X c #C0C0E1",
"4X c #C5D9E7",
"5X c #D5DEE6",
"6X c #CFE1EE",
"7X c #D9E2E5",
"8X c #DEE5E8",
"9X c #D6E9F5",
"0X c #D9ECF7",
"qX c #E0E5E9",
"wX c #E9EEEE",
"eX c #EBF1F0",
/* pixels */
"l.z.z.z.x.x.z.z.z.x.v.x.z.l.p.l.z.z.z.z.z.z.z.z.z.z.z.z.z.v.z.z.z.l.l.l.z.z.z.z.z.z.v.z.z.z.z.z.z.v.z.z.l.l.l.l.z.z.l.z.z.c.x.z.",
"z.x.x.b.v.v.x.x.x.b.b.b.x.p.l.k.c.z.c.x.x.x.b.z.).z.s.s.( ~ ~ ~ ~ ~ ~ ~ i.z.z.z.z.b.b.b.v.z.c.c.b.b.b.l.l.k.z.x.x.c.x.x.v.b.v.v.",
"z.x.x.v.x.x.x.x.x.c.c.c.x.l.x.x.z.v.v.z.x.z.v.a.,.( L Q  .{ { { { { { ] L L L ,.<.v.z.c.z.x.x.c.c.c.c.z.z.x.x.c.v.x.x.x.c.c.x.x.",
"z.x.x.x.x.x.x.x.x.x.x.x.x.x.x.x.v.b.b.b.x.z.( ! ] ..X.o.+.....| .... .} J } F m L ~ i.z.c.c.x.x.c.x.c.z.x.x.c.v.b.v.x.x.x.x.x.x.",
"z.x.x.x.x.x.x.x.x.x.x.x.x.x.x.x.v.v.z.z.z./ +.+...o...o.+.............} K } J C F F L i.c.z.c.z.x.x.x.x.x.x.c.c.c.c.x.x.x.x.x.x.",
"z.x.x.x.x.x.x.x.x.x.x.x.x.x.x.x.z.z.z.z.~ @.$.+...o...o.o.............} K } F M F H C L i.c.z.z.x.x.z.z.x.x.z.c.x.x.x.x.x.x.x.x.",
"z.x.x.x.x.x.x.x.x.x.f.<.<.<.>.<.<.<.,.( @.$.$.+...o...o.+.............} K } F M F H C m L <.>.<.>.<.<.<.<.i.z.z.x.x.x.x.x.x.x.x.",
"z.x.x.x.x.x.x.x.x.d.~ ' ' ' ' ' ' ' ] ..#.$.$.+...o.X.o.o.............} K } F M F H C M M ' ' ' [ ' ' ' ' ! i.l.k.l.x.x.x.x.x.x.",
"z.x.x.x.x.x.c.z.s.~ ] X.+.+.+.+.+.o...o.#.#.$.+...X...o.o.....| ......} K } F m F H C m C ..X.+.+.+.+.+.X.| ! >.l.l.x.x.x.x.x.x.",
"z.x.x.x.x.x.z.s.~ H ..+.+.+.+.+.@.+.o.o.#.#.$.+...o.X.o.+.......| ....} K } F M F H M m C X.+.+.+.@.+.@.@.X.| L i.c.x.x.x.x.x.x.",
"z.z.l.l.x.x.s.~ H } X.+.@.+.+.+.+.@.o.o.#.#.$.+...o...o.o.............} ] } F M F J M m C X.@.+.+.+.@.@.@.o.| K L G.c.k.l.l.x.x.",
"l.l.z.z.z.z.~ F } | X.+.+.@.+.+.+.+.+.o.#.#.$.+...o...o.+.............} K } F m F J M m C X.@.@.+.+.@.@.@.o...} } L i.l.l.l.x.x.",
"z.x.x.x.x.s.V K } | X.+.@.+.@.+.+.@.o.o.#.#.$.+...X...o.o.............} K } F M F H M m C X.@.+.@.@.+.@.@.o...} } C <.x.x.x.x.x.",
"z.z.x.v.).f.V K } } X.+.+.@.@.+.@.+.+.o.#.#.$.+.X.o...o.+.............} K } F M F H M m C X.+.@.+.+.@.+.@.o.| } } C <.x.c.b.).c.",
"z.x.x.).).(.L K | } X.+.+.@.+.@.+.@.+.o.#.#.$.+...X.X.o.o.............} K } F M F H M m C X.+.+.@.+.+.@.@.o.| } K S <.c.c.).).b.",
"z.x.x.c.x.f.Z J } | X.+.@.+.@.+.@.+.o.o.#.#.$.@...o...o.+.| ....| ....} K } F M F H C m C X.+.+.+.+.@.+.@.o...} } C <.x.c.c.c.c.",
"z.x.x.x.x.s.L K | } X.+.+.+.+.@.+.@.o.o.$.#.$.+...o...o.o.............} K } F m D J M m C X.+.+.@.+.@.+.@.o...} } S <.x.x.c.x.x.",
"z.x.x.x.x.f.V K } } X.+.+.@.+.@.@.+.+.o.#.#.$.+...X.X.o.+.............} K } F M F H M m C X.@.@.+.@.+.@.@.o.| } } C <.x.x.c.c.x.",
"z.x.x.v.b.f.V J } | X.@.@.+.@.+.+.@.o.o.#.#.$.+.X.o...X.o.....| ......} ] } F M F J M m C X.@.+.+.@.+.@.@.o...} } C <.x.c.b.c.c.",
"z.x.x.v.x.s.V H | } X.+.+.@.+.@.@.+.o.o.#.#.$.+...o...o.+.............} K } F m F H C m C X.O.@.@.+.@.+.@.o.| } K S <.c.c.c.c.c.",
"l.x.x.x.x.s.L K } | X.+.+.@.+.@.@.@.o.+.#.#.$.+...o...o.o.............} K } F M F H C m C X.@.@.+.@.+.@.@.o.| } K S <.x.c.x.x.x.",
"z.x.x.x.x.s.V K } } X.+.@.+.@.+.@.@.o.o.#.#.$.+...o.X.o.o.............} K } F M F H M m C X.@.@.+.+.+.@.@.o...} } L <.x.c.x.x.x.",
"z.x.x.x.x.s.V K } | X.+.+.@.@.+.@.@.o.o.#.#.$.+...o...o.+.............] K } F M F H C m C X.@.+.@.+.@.+.@.o...} K F <.x.x.x.x.x.",
"z.x.x.x.x.s.V J | } X.@.+.+.+.@.+.@.o.o.#.#.$.+...o.X.o.o...| ........} K } F m F J M m C X.+.@.+.@.+.@.@.o.| } K S <.x.x.x.x.x.",
"z.x.x.x.x.s.L H } | X.+.@.+.@.+.@.@.o.o.#.#.$.+...o...o.+.........| ..} H } F M F H M m C X.@.+.+.@.+.@.@.o...} K D <.x.x.x.x.x.",
"z.x.x.x.x.s.Z H } | X.+.+.+.+.@.+.+.+.o.#.#.$.+...o...o.o.............} K } F M F H M m C X.+.+.@.+.@.@.@.o.| } } D <.x.x.x.x.x.",
"z.x.x.x.x.s.V K } } X.+.+.@.+.@.@.@.o.o.#.#.$.+...o...o.+.....| ......} K } F M F J M m C X.+.@.+.@.@.@.@.o.| } } S <.x.x.c.x.x.",
"l.x.k.z.z.s.V H | } X.+.@.+.@.+.@.@.o.o.#.#.$.+...o...o.o.............} K } F M F J M m C X.@.+.@.+.@.@.@.o...} K C <.k.l.l.x.x.",
"p.k.l.l.x.s.V K } | X.+.+.@.+.@.@.@.+.o.#.#.$.+.X.o...o.+.............} K } F M F H M m C X.+.@.+.+.@.+.@.o...} } C >.k.l.l.x.x.",
"z.x.x.x.x.s.V H | } X.@.+.+.+.@.+.@.o.o.#.#.$.+...X...o.o.............} K } G m F H C m C X.+.+.+.@.+.@.@.o.| } K C <.x.x.x.x.x.",
"z.x.x.x.v.f.L J } } X.@.@.+.@.+.@.+.o.o.#.#.$.+...o...o.+.............} K } F M F H M m C X.+.@.+.@.@.+.@.o...} } D <.x.c.c.v.c.",
"z.x.x.).)./.V K } | X.@.+.@.+.@.+.@.+.o.#.#.$.+...o.X.o.o.............} K } F M F K M m C X.@.+.@.+.+.@.@.o.| } K C <.c.c.b.).b.",
"z.c.z.c.c.s.V H } } X.+.+.+.+.+.+.+.o.o.#.#.$.@...o...o.o.............} K } F C F H M m C X.+.@.+.+.@.+.@.o.| } K C <.x.x.c.x.c.",
"z.z.c.c.z.s.L J | } X.+.+.+.+.+.+.+.+.o.#.#.$.O.X.o...X.[ A A A F L A C H } F m F K M m C X.@.+.@.+.+.@.@.o...} } D >.x.x.x.x.x.",
"z.x.z.z.c.s.B J } } X.+.+.@.+.+.+.@.+.o.#.#.$.o.{ A n n P P U U L U U U n m n m D H C m C X.@.@.+.+.@.+.+.o.| ] H m <.x.x.c.c.x.",
"z.x.c.b.b.z.I S J | X.+.+.+.+.+.+.+.X.o.#.#. .Z b Y ) ) P.W.W.Y.Y.T.Y.R._ ) ^ b n M m m C ..+.+.@.@.+.@.+.X...H m v i.z.c.b.v.c.",
"z.x.c.c.x.p.w.` S K | ..+.+.o.+.+.X...o.#.Q P ) S.P._._.}.|.|.|.|.|.|.|.'.!.W.S.0.W n m C ..X.+.+.+.+.O.X.| ] m v 8 u.x.c.c.c.c.",
"z.z.x.x.x.p.t.>X` C K | ..............X.[ R P._.'.|.&X-X-X|.`.!.!.!.|.&X&X&X%X'.!.T.) b C | ......| ......} m v 6.1.u.x.x.x.x.x.",
"z.x.x.x.x.p.D.8X*X` C F ] G G G H G H Z R P.}.%X&X&X&X-X].`.1XqXqXqX].!.&X&X-X-X&X|.!.) N G H G F H G ] F m v f r.3.u.x.x.x.x.x.",
"z.x.x.x.x.p.D.eX8X*X` n b b b b b b b Y P.|.&X&X&X&X&X{.].3X X X X X3X.X`.&X&X&X&X-X&X_.) b b b b b b b b v f r.g.3.w.x.x.x.x.x.",
"z.x.x.x.x.d.e.<XwX8X*XF.Z.A.0.V.S.A.A.P.%X&X&X&X&X-X[.U.].J.L.;X>XE.J.U.U.].&X&X&X&X&X|.!.A.A.A.Z.0.A.S.0.6.r.g.r.h e y.x.x.x.x.",
"z.x.x.x.x.x.p.j.<XwX8X%X'.'.Y.Q.'.'.'.|.&X&X&X&X-X-X!.J.h..X0X0X0X0X4XJ.H.U.|.&X&X&X&X-X%X{.'.'._.L.Q.'.`.r.r.r.1.e r *.y.l.x.x.",
"z.x.x.x.x.x.z.-.D.<XwX,X&X&XQ.'.-X-X-X&X&X&X&X&X-X%XJ.h..X0X;XP.U.].9X4XH.J.{.-X&X&X&X&X&X&X&X-X%XQ.|.-X|.j.r.1.6 0 *.*.*.y.x.x.",
"z.x.x.x.x.x.z.w.P.K.<X<X&X%XQ.'.-X-X-X-X-X-X&X-X;X.X4.3.4X4XK.;X5XK.=X0XJ.1.!.-X-X-X-X-X-X-X-X-X%XT.|.-X|.h.1.h y r *.*.*.*.q.z.",
"z.l.l.z.x.x.x.w.>X^.D.!.Y.Y.g.K.Y.Y.Y.Y.Y.Y.L.Y.U.L.1.3.U.U.j.6X0XT.K.!.5.1.H.Y.Y.Y.Y.Y.Y.I.Y.Y.L.r.L.Y.Y.1.1.5.y w %.%.q *.*.u.",
"l.l.l.l.x.x.x.w.2X5X!.7 = - 1 w.8 > T T T T T T E R ^ 3.;X6XW.K.W.j.:X6XH.5 T T T T I T T T > 3 2.u = ; - 2.5.r.u w %.q q %.%.y.",
"z.x.x.x.x.x.x.w.2XwX4X8 @ $ ; T.6.x S J J K H K J J P 3.j.6X9X>X3X6X0X`.3.R J H K K K K K M z , Y.1.@ $ & t.r.g.u *.*.*.*.*.*.y.",
"z.x.z.c.v.c.x.w.2XwX7Xg & ; 3 _.L.0.c A | ........| } Y 3.j.-X0X0X4XW.3.E H } ..| ......Z x , K._.e.& ; - L.r.j.u r *.*.*.*.=.y.",
"z.x.x.).).).x.w.2XwX5Xj i i i &XQ.{.C.c C ............} W s 3.h.J.7.s E H } ..........A x ^ {.Q.|.Z.3 a : R.g.g.y *.*.*.*.=.-.u.",
"z.x.x.x.v.c.x.w.2XwX5Xe.a d g &XT.{.|._ c A | ..........} ] R E T E ' K } ..........A   , !.%XT.|.D.a k s R.g.g.u *.*.*.*.*.*.u.",
"z.x.x.x.x.x.x.w.2XwX5X6.d d 1.&XQ.{.|.Q.F.B A { { { { { | { ] ] } ] ] { { { { { | A x , L.'.%XT.|.D.a k s R.r.t.y r *.*.%.*.*.u.",
"z.x.x.x.c.x.x.-.^.qX7X6.d d j &XT.{.|.Q.5XF.c b b b b b b b b b b b b b b b b n n x > r.Y.'.%XT.|.D.a k s R.r.1.6 *.*.*.*.*.*.:.",
"z.x.x.v.v.v.x.-.l ~.5Xe.d k j |.T.'.{.T.7XwXF.X     o O O O O o O O O O O O X X X > t.h.I.'.}.Y.}.t.a k s L.1.- - *.*.*.*.=.=.=.",
"z.x.x.v.x.c.x.:.6 l E.6.d k h Y.j.L.Y.j.<XeX*X# $ . 8.XXM.M.M.XXOXXXM.M.M.9.= @ + 7 j.r.r.L.Y.j.Y.r.a k 8 t.= - 0 *.%.*.*.=.*.*.",
"z.x.x.x.x.x.x.y.r 7 j 3 d k 3 6.j l l j ^.7X~.$ & $ 8.+X+X+X+X$X@XB.+X+X+XoX1 & $ 7 r.5.j l 6.j 6.8 a k 7 8 - r =.*.*.*.*.*.*.*.",
"z.x.x.x.x.x.x.:.%.*.6 $ i i $ 3 7 : : : V.%X^.; a = 8.n.n.+X#X@XB.B.B.B.@XOX1 i 3 2 5.3 ; 3 3 3 3 & : a & ; 0 *.*.*.*.*.*.*.*.*.",
"z.x.x.x.x.x.x.:.*.*.r * % & * < 0 9 9 0 7 C.D.i k 3 8.7.s $X@XB.B.B.+X@X$X#X4 g a 2 3 % 6 9 0 0 0 * % & # 0 *.*.*.*.*.%.*.*.*.*.",
"z.x.x.x.x.x.x.:.*.*.*.w w w w *.*.*.*.*.w 7 g p k 7 8.+X#X@XB.B.B.B.@X$X$XoX4 k g = % 9 *.*.*.*.*.&.w q &.*.*.%.*.*.*.*.*.*.*.*.",
"z.x.x.x.x.x.x.:.&.*.*.*.*.*.*.*.%.q %.%.*.r 1 8 k 8 8.OXN.m.m.m.9.XXOXOXN.9.4 k k = 9 *.*.*.*.*.*.*.*.*.*.*.*.&.%.%.*.*.*.*.*.*.",
"z.x.x.x.x.x.x.:.*.*.&.*.*.*.*.*.q q %.%.*.*.0 p k 8 6 y t t y y y y y y t 6 2 k d 6 *.*.*.*.*.*.*.*.*.*.*.*.%.%.q q *.*.*.*.*.*.",
"z.x.x.x.c.z.c.:.&.*.*.*.*.*.*.*.*.=.*.*.*.*.0 p k 8 0 *.*.*.*.*.*.*.*.=.*.*.6 k k < *.*.*.*.*.&.*.*.*.*.*.*.*.*.*.*.%.&.*.*.%.*.",
"l.x.l.z.c.z.x.:.&.*.*.*.*.*.*.*.=.*.*.*.%.%.9 8 l p 0 *.*.*.*.*.*.*.*.*.*.*.7 k g < *.*.*.*.*.&.*.*.*.*.*.*.=.*.=.*.*.q %.&.*.*.",
"l.k.l.k.z.c.z.:.&.&.&.*.*.*.*.*.*.*.*.*.%.%.< : g ; 9 *.&.%.*.*.*.*.*.*.&.&.- a i * *.*.*.&.%.%.*.*.*.*.&.*.*.*.*.&.%.q q %.*.*.",
"l.l.x.x.c.z.z.;.q q &.*.*.*.*.*.*.*.*.*.%.*.< $ : $ < %.q &.*.*.*.*.*.*.*.&.% ; ; * *.*.*.&.%.%.%.&.*.*.*.*.*.*.*.*.&.&.&.*.*.*."
};
