/* XPM */
static char *result[] = {
/* columns rows colors chars-per-pixel */
"64 64 101 2 ",
"   c #63BF99",
".  c #64BF99",
"X  c #65BF99",
"o  c #65C099",
"O  c #65C09A",
"+  c #66C09A",
"@  c #67C09A",
"#  c #67C19B",
"$  c #68C19B",
"%  c #69C19B",
"&  c #6BC09B",
"*  c #6BC19B",
"=  c #68C29B",
"-  c #6CC19B",
";  c #6FC09B",
":  c #69C29C",
">  c #6AC29C",
",  c #6BC29C",
"<  c #6AC39C",
"1  c #6BC39D",
"2  c #6DC19C",
"3  c #6CC39D",
"4  c #6EC29C",
"5  c #6EC29D",
"6  c #6FC29D",
"7  c #6FC39D",
"8  c #6CC49E",
"9  c #6DC49E",
"0  c #6EC49E",
"q  c #6EC49F",
"w  c #6EC59F",
"e  c #6FC59F",
"r  c #70C39E",
"t  c #71C39E",
"y  c #71C49E",
"u  c #71C49F",
"i  c #70C59F",
"p  c #72C49F",
"a  c #72C4A0",
"s  c #73C5A0",
"d  c #70C6A0",
"f  c #71C6A0",
"g  c #71C6A1",
"h  c #72C6A0",
"j  c #72C7A0",
"k  c #72C6A1",
"l  c #72C7A1",
"z  c #73C7A1",
"x  c #73C7A2",
"c  c #74C5A1",
"v  c #74C6A1",
"b  c #74C7A1",
"n  c #74C6A2",
"m  c #74C7A2",
"M  c #76C7A3",
"N  c #77C7A4",
"B  c #74C8A2",
"V  c #75C8A2",
"C  c #74C8A3",
"Z  c #75C8A3",
"A  c #75C9A3",
"S  c #76C8A3",
"D  c #76C9A3",
"F  c #76C9A4",
"G  c #77C9A4",
"H  c #77C9A5",
"J  c #77CAA5",
"K  c #77CAA6",
"L  c #78CAA4",
"P  c #78CAA5",
"I  c #79CAA5",
"U  c #7ACAA5",
"Y  c #78CAA6",
"T  c #78CBA6",
"R  c #79CBA7",
"E  c #7ACAA6",
"W  c #7ACBA6",
"Q  c #7BCBA6",
"!  c #7BCBA7",
"~  c #7CCBA7",
"^  c #7CCCA7",
"/  c #79CBA8",
"(  c #7ACBA8",
")  c #7ACCA8",
"_  c #7ACCA9",
"`  c #7BCCA9",
"'  c #7BCDA9",
"]  c #7DCCA8",
"[  c #7ECCA8",
"{  c #7ECDA8",
"}  c #7ECDA9",
"|  c #7FCDA9",
" . c #7CCDAA",
".. c #80CDAA",
"X. c #80CEAA",
"o. c #81CEAA",
"O. c #81CEAB",
"+. c #82CEAB",
"@. c #82CFAB",
"#. c #83CFAC",
"$. c #84D0AC",
/* pixels */
"; y u p v a y y u s N s y 6 - 5 t y y y y y p v s y y y p M c u 7 & 5 t y y y y y p N s p y t p n M p r * 4 r y y y y y u M v p ",
"t z Z ) R Y z z B ` '  .g @ < : z z z z z B ) K R B z z R  . .C + 1 $ l z z z z z ) _ / Z z z J  . .R > 1 # d z z z z z J ' R J ",
"t z m F B B z z z F Z F h 9 f f z A B z z z F B B z z z Z A F z 9 f d z B Z z z z F B Z z z z m F F Z e f i z B F z z z Z A B m ",
"t z z z z z z z z z z z z z z z Y ' ` F z z z z z z z z z z z z z z z H R ` F z z z z z z z z z z z z z z z F R ' J z z z z z z ",
"t z z z z z z z z z z z z z z z Z F F B z z z z z z z z z z z z z z z B Z F Z z z z z z z z z z z z z z z z z Z Z A z z z z z z ",
"t z z z z z z z z z z z z z z z z z z z z z z z z z z z z z z z z z z z z z z z z z z z z z z z z z z z z z z z z z z z z z z z ",
"t z z z z z z z z z z z z z z z z h z z z z z z z z z z z z z z z z z z l h z z z z z z z z z z z z z z z z z z h z z z z z z z ",
"t z z z z z z z z z z z z z z z 9 o $ e z z z z z z z z z z z z z z z e : + i z z z z z z z z z z z z z z z i > X 0 z z z z z z ",
"t z z z z z z z z z z z z z z z q 9 > f z z z z z z z z z z z z z z z d e 1 e z z z z z z z z z z z z z z z f w 9 9 z z z z z z ",
"t z z z z z z z z z z z z z z F ` ) Z z z z z z z z z z z z z z z z A T J F z z z z z z z z z z z z z z z B T Y F m z z z z z z ",
"6 e 3 0 z z z z z z z z z z z F Y R F h e 3 9 l z z z z z z z z z z Z Y H Y z e O 9 f z z z z z z z z z z B Y F R z f # , e z z ",
"2 : 9 1 z z z e 3 0 f z z z z z z z z h $ 9 > l z z f 9 3 i z z z z z z z z z > $ > f z z l i 3 i l z z z z z z z z 3 $ > 0 z z ",
"t l z z z z z 9 1 > 9 z z z z z z z z z l z z z z z d > 1 1 z z z z z z z z z l z z z z z h $ 9 $ l z z z z z z z z z z z z z z ",
"t z m I [ I V z z l z z z z z z z z z z z z L | ~ G z z z z z z z z z z z z z z z G ] ] V z l z l z z z z z z z z z z z S W o.D ",
"t z B #.O.$.G z z z z z z z z z z z z z z z X.#.$.^ z z z z z z z z z z z z z z z ] X.#.E z z z z z z z z z z z z z z z P X.+...",
"t z z V Z S z z z z z z z z z z z z z z z z B Z S z z z z z z z z z z z z z z z z b B Z B z z z z z z z z z z z z z z z z B B S ",
"t z z z z z z z z z z z z z z z z z z z z z z z z z z z z z z z z z z z z z z z z z z z z z z z z z z z z z z z z z z z z z z z ",
"t z z m Z z z z z z J B z h e z z z z z z z z A z z z z z J Z z z e z z z z z z z z J m z z z z Z F z z e l z z z z z z z H Z z ",
"t z Z Y R Y z z B R  .) l > : > z z z z z B J Y R B z z J  .` C > > : h z z z z z Y  .R Z z z J `  .Y 3 > $ i z z z z z F  .( J ",
"t z m F Z Z z z z F F J k 9 d i z F B z z z H B Z z z z A F J x 3 f e z Z A z z z F Z A z z z B H F Z 0 d e z B F z z z Z F Z B ",
"t z z z z z z z z z z z z z z z Y ' ` F z z z z z z z z z z z z z z z J R ` F z z z z z z z z z z z z z z z F R ' J z z z z z z ",
"t z z z z z z z z z z z z z z z Z Z F m z z z z z z z z z z z z z z z m B A B z z z z z z z z z z z z z z z z Z Z Z z z z z z z ",
"t z z z z z z z z z z z z z z z z z z z z z z z z z z z z z z z z z z z z z z z z z z z z z z z z z z z z z z z z z z z z z z z ",
"t z z z z z z z z z z z z z z z z f l z z z z z z z z z z z z z z z z z l h z z z z z z z z z z z z z z z z z z f z z z z z z z ",
"t z z z z z z z z z z z z z z z 9 . $ 0 z z z z z z z z z z z z z z z 9 $ O e z z z z z z z z z z z z z z z e : . 0 z z z z z z ",
"t z z z z z z z z z z z z z z z 3 1 : i z z z z z z z z z z z z z z z e 9 > 0 z z z z z z z z z z z z z z z f 9 3 3 z z z z z z ",
"t z z z z z z z z z z z z z z Z T T B z z z z z z z z z z z z z z z B F F B z z z z z z z z z z z z z z z m F H Z z z z z z z z ",
"6 i 3 e z z z z z z z z z z z F R ( F h i 3 0 l z z z z z z z z z z Z Y J Y z i + 0 h z z z z z z z z z z B Y F R z f $ 1 i z z ",
"2 = 3 > z z z i 9 e f z z z z z z z z h $ 9 : l z z f 0 9 f z z z z z z z z z : # : f z z l d 9 d l z z z z z z m z 3 @ : 0 z z ",
"t j z z z z z 9 1 > 9 z z z z z z z z z h z z z z z i : > , z z z z z z z z z l z z z z z h $ 3 $ h z z z z z z z z l l z z z z ",
"t z z V I Z b z z l z z z z z z z z z z z z B E G m z z l l z z z z z z z z z z z B P I z z h z h z z z z z z z z z z z m S Q B ",
"t z b | o.X.Z z z z z z z z z z z z z z z z ] @.@.I z z z z z z z z z z z z z z z E { O.P z z z z z z z z z z z z z z z D ] o.[ ",
"t z z V V Z z z z z z z z z z z z z z z z z B V Z z z z z z z z z z z z z z z z z b m V B z z z z z z z z z z z z z z z z B B Z ",
"t z z z z z z z z z z z z z z z z z z z z z z z z z z z z z z z z z z z z z z z z z z z z z z z z z z z z z z z z z z z z z z z ",
"t z z z B z z z z z F m z l f z z z z z z z z B z z z z z A B z z d l z z z z z z z F m z z z z B Z z z d l z z z z z z z Z B z ",
"t z Z Y R Y z z B R  .) l > > : z z z z z B Y Y R B z z Y ' ` C > > $ h z z z z z Y ' R Z z z J ` ' Y 3 > $ i z z z z z F ` R J ",
"t z m F Z B z z z F A F k 9 f d z Z B z z z F B Z z z z Z F F z 9 f i z B Z z z z F Z Z z z z B F F Z e f e z B A z z z Z F Z B ",
"t z z z z z z z z z z z z z z z Y  .` F z z z z z z z z z z z z z z z H ( ` F z z z z z z z z z z z z z z z F R  .J z z z z z z ",
"t z z z z z z z z z z z z z z z H J R B z z z z z z z z z z z z z z z B F Y F z z z z z z z z z z z z z z z m F F J z z z z z z ",
"t z z z z z z z z z z z z z z z z z z z z z z z z z z z z z z z z z z z z z z z z z z z z z z z z z z z z z z z z z z z z z z z ",
"t z z z z z z z z z z z z z z z z h z z z z z z z z z z z z z z z z z z l h z z z z z z z z z z z z z z z z z z h z z z z z z z ",
"t z z z z z z z z z z z z z z z 9 X : 0 z z z z z z z z z z z z z z z 9 $ + i z z z z z z z z z z z z z z z e > . e z z z z z z ",
"t z z z z z z z z z z z z z z z : + . 9 z z z z z z z z z z z z z z z 3 : + 3 z z z z z z z z z z z z z z z 0 $ # > z z z z z z ",
"t z z z z z z z z z z z z z z Z Y Y z z z z z z z z z z z z z z z z B F F B z z z z z z z z z z z z z z z m F F B l z z z z z z ",
"6 e 3 0 z z z z z z z z z z z F T R F h i 3 0 l z z z z z z z z z z Z Y J Y z e O 9 f z z z z z z z z z z B Y F R z f # 1 i z z ",
"2 : 9 1 z z z e 3 w f z z z z z z z z h $ 9 > l z z f 9 9 f z z z z z z z z z : $ > f z z h d 3 d l z z z z z z z z 3 # > 0 z z ",
"t l z z z z z > % : 3 z z z z z z z z z l z z z z z w + : : z z z z z z z z z l z z z z z f # 1 # h z z z z z z z z z z z z z z ",
"t z z V W S m z h f h z z z z z z z z z z z V Q L B z h f f z z z z z z z z z z z B I U z z i h i z z z z z z z z z z z B D ^ B ",
"t z B X.O.@.D z z z z z z z z z z z z z z z } #.#.W z z z z z z z z z z z z z z z ! | @.I z z z z z z z z z z z z z z z G | @.} ",
"t z z Z S D z z z z z z z z z z z z z z z z V S D b z z z z z z z z z z z z z z z m B S B z z z z z z z z z z z z z z z z V V D ",
"t z z z z z z z z z z z z z z z z z z z z z z z z z z z z z z z z z z z z z z z z z z z z z z z z z z z z z z z z z z z z z z z ",
"t z z z B z z z z z Z z z z f z z z z z z z z B z z z z z Z B z z f z z z z z z z z Z z z z z z B Z z z f z z z z z z z z Z B z ",
"t z Z J R Y z z B R  .) l , > > z z z z z B J Y T m z z J ' ) C 1 > : h z z z z z J ' R Z z z H ` ` Y 3 > : d z z z z z F ` R J ",
"t z B H Z Z z z z F F J k 3 i e z Z m z z z H B A z z z F F J x 3 d e z B B z z z F Z A z z z B J F A 0 i w l z Z z z z Z F Z B ",
"t z z z z z z z z z z z z z z z F ' R Z z z z z z z z z z z z z z z z Z R ` Z z z z z z z z z z z z z z z z Z Y  .A z z z z z z ",
"t z z z z z z z z z z z z z z z F J Y B z z z z z z z z z z z z z z z Z F J A z z z z z z z z z z z z z z z B F H F z z z z z z ",
"t z z z z z z z z z z z z z z z z z z z z z z z z z z z z z z z z z z z z z z z z z z z z z z z z z z z z z z z z z z z z z z z ",
"t z z z z z z z z z z z z z z z z z z z z z z z z z z z z z z z z z z z z z z z z z z z z z z z z z z z z z z z z z z z z z z z ",
"t z z z z z z z z z z z z z z z i $ 1 i z z z z z z z z z z z z z z z i 1 $ f z z z z z z z z z z z z z z z f 8 @ d z z z z z z ",
"t z z z z z z z z z z z z z z z > @ O 0 z z z z z z z z z z z z z z z 9 > @ 9 z z z z z z z z z z z z z z z e : $ > z z z z z z ",
"t z z z z z z z z z z z z z z V Y K z z z z z z z z z z z z z z z z B F F m z z z z z z z z z z z z z z z m F F B z z z z z z z ",
"6 d 9 e z z z z z z z z z z z F R ) F h f 8 w l z z z z z z z z z z Z Y J Y z i + 0 f z z z z z z z z z z B T H R z f $ 3 i z z ",
"- $ > @ z z z h i f z z z z z z z z z f $ 1 + f z z l f e l z z z z z z z z z $   + e z z z l e l z z z z z z z m z 1 . + 1 z z ",
"r e h h z z z 1 $ : 9 z z z z z z z z z e h f z z z e # % > z z z z z z z z z i f f z z z f $ > % h z z z z z z z z f i f l z z "
};
