/* XPM */
static char *result[] = {
/* columns rows colors chars-per-pixel */
"64 64 114 2 ",
"   c black",
".  c #161919",
"X  c #232828",
"o  c #600018",
"O  c #385054",
"+  c #21457C",
"@  c #515151",
"#  c #C00030",
"$  c #F86828",
"%  c #E05060",
"&  c #55AC5A",
"*  c #283FA4",
"=  c #2F66B9",
"-  c #375FDA",
";  c #63BF99",
":  c #64BF99",
">  c #65BF99",
",  c #65C099",
"<  c #65C09A",
"1  c #66C09A",
"2  c #67C09A",
"3  c #67C19B",
"4  c #68C19B",
"5  c #69C19B",
"6  c #6BC09B",
"7  c #6BC19B",
"8  c #68C29B",
"9  c #6CC19B",
"0  c #6FC09B",
"q  c #69C29C",
"w  c #6AC29C",
"e  c #6BC29C",
"r  c #6AC39C",
"t  c #6BC39D",
"y  c #6DC19C",
"u  c #6CC39D",
"i  c #6EC29C",
"p  c #6EC29D",
"a  c #6FC29D",
"s  c #6FC39D",
"d  c #6CC49E",
"f  c #6DC49E",
"g  c #6EC49E",
"h  c #6EC49F",
"j  c #6EC59F",
"k  c #6FC59F",
"l  c #70C39E",
"z  c #71C39E",
"x  c #71C49E",
"c  c #71C49F",
"v  c #70C59F",
"b  c #72C49F",
"n  c #72C4A0",
"m  c #73C5A0",
"M  c #70C6A0",
"N  c #71C6A0",
"B  c #71C6A1",
"V  c #72C6A0",
"C  c #72C7A0",
"Z  c #72C6A1",
"A  c #72C7A1",
"S  c #73C7A1",
"D  c #74C5A1",
"F  c #74C6A1",
"G  c #74C7A1",
"H  c #74C6A2",
"J  c #74C7A2",
"K  c #76C7A3",
"L  c #77C7A4",
"P  c #74C8A2",
"I  c #75C8A2",
"U  c #74C8A3",
"Y  c #75C8A3",
"T  c #75C9A3",
"R  c #76C8A3",
"E  c #76C9A3",
"W  c #76C9A4",
"Q  c #77C9A4",
"!  c #77C9A5",
"~  c #77CAA5",
"^  c #77CAA6",
"/  c #78CAA4",
"(  c #78CAA5",
")  c #79CAA5",
"_  c #7ACAA5",
"`  c #78CAA6",
"'  c #78CBA6",
"]  c #79CBA7",
"[  c #7ACAA6",
"{  c #7ACBA6",
"}  c #7BCBA6",
"|  c #7BCBA7",
" . c #7CCCA7",
".. c #79CBA8",
"X. c #7ACBA8",
"o. c #7ACCA8",
"O. c #7ACCA9",
"+. c #7BCCA9",
"@. c #7BCDA9",
"#. c #7DCCA8",
"$. c #7ECCA8",
"%. c #7ECDA9",
"&. c #7FCDA9",
"*. c #7CCDAA",
"=. c #5A8BD6",
"-. c #80CDAA",
";. c #80CEAA",
":. c #81CEAA",
">. c #81CEAB",
",. c #82CEAB",
"<. c #82CFAB",
"1. c #83CFAC",
"2. c #84D0AC",
"3. c #B0B0D0",
/* pixels */
"0 x c b F n x x c m L m x a 9 p z x x x x x b F m x x x b K D c s 6 p z x x x x x b L m b x z b H K b l 7 i l x x x x x c K F b ",
"z S Y o.] ` S S P +.@.*.B 2 r q S S S S S P o.^ ] P S S ] *.*.U 1 t 4 A S S S S S o.O...Y S S ~ *.*.] w t 3 M S S S S S ~ @.] ~ ",
"z S J W P P S S S W Y W V f N N S T P S S S W P P S S S Y T W S f N M S P Y S S S W P Y S S S J W W Y k N v S P W S S S Y T P J ",
"z S S S S S S S S S S S S S S S ` @.+.W S S S S S S S S S S S S S S S ! ] +.W S S S S S S S S S S S S S S S W ] @.~ S S S S S S ",
"z S S S S S S S S S S S S S S S Y W W P S S S S S S S S S S S S S S S P Y W Y S S S S S S S S S S S S S S S S Y Y T S S S S S S ",
"z S S S S S S S S S S S S S S S S S S S S S S S S S S S S S S S S S S S S S S S S S S S S S S S S S S S S S S S S S S S S S S S ",
"z S S S S S S S S S S S S S S S S V S S S S S S S S S S S S S S S S S S A V S S S S S S S S S S S S S S S S S S V S S S S S S S ",
"z S S S S S S S S S S S S S S S f , 4 k S S S S S S S S S S S S S S S k q 1 v S S S S S S S S S S S S S S S v w > g S S S S S S ",
"z S S S S S S S S S S S S S S S h f w N S S S S S S S S S S S S S S S M k t k S S S S S S S S S S S S S S S N j f f S S S S S S ",
"z S S S S S S S S S S S S S S W +.o.Y S S S S S S S S S S S S S S S T ' ~ W S S S S S S S S S S S S S S S P ' ` W J S S S S S S ",
"a k u g S S S S S S S S S S S W ` ] W V k u f A S o o o o o o o o o o o o o o o o f N S S S S S S S S S S P ` W ] S N 3 e k S S ",
"y q f t S S S k u g N S S S S S S S S V 4 f w A S o o o o o o o o o o o o o o o o w N S S A v u v A S S S S S S S S u 4 w g S S ",
"z A S S S S S f t w f S S S S S S S S S A S S o o # # % % % % % % % % % % % % # # o o S S V 4 f 4 A S S S S S S S S S S S S S S ",
"z S J ) $.) I S S A S S S S S S S S S S S S / o o # # % % % % % % % % % % % % # # o o #.I S A S A S S S S S S S S S S S R { :.E ",
"z S P 1.>.2.Q S S S S S S S S S S S S S S S ;.o o % % % % % % % % % % % % % % % % o o 1.[ S S S S S S S S S S S S S S S ( ;.,.-.",
"z S S I Y R S S S S S S S S S S S S S S S S P o o % % % % % % % % % % % % % % % % o o Y P S S S S S S S S S S S S S S S S P P R ",
"z S S S S S S S S S S S S S S S S S S S S o o # # % % % % % % % % % % % % % % % % # # o o         S S S S S S S S S S S S S S S ",
"z S S J Y S S S S S ~ P S V k S S S S S S o o # # % % % % % % % % % % % % % % % % # # o o         W S S k A S S S S S S S ! Y S ",
"z S Y ` ] ` S S P ] *.o.A w q w S S S     o o # # # # % % % % % % % % % % % % # # # # o o     ~ +.*.` u w 4 v S S S S S W *.X.~ ",
"z S J W Y Y S S S W W ~ Z f M v S W P     o o # # # # % % % % % % % % % % % % # # # # o o     P ! W Y g M k S P W S S S Y W Y P ",
"z S S S S S S S S S S S S S S S `     O O     # # # # # # # # # # # # # # # # # # # #     O O     S S S S S W ] @.~ S S S S S S ",
"z S S S S S S S S S S S S S S S Y     O O     # # # # # # # # # # # # # # # # # # # #     O O     S S S S S S Y Y Y S S S S S S ",
"z S S S S S S S S S S S S S S S S         O O o o # # # # # # # # # # # # # # # # o o O O     S S S S S S S S S S S S S S S S S ",
"z S S S S S S S S S S S S S S S S         O O o o # # # # # # # # # # # # # # # # o o O O     S S S S S S S S S N S S S S S S S ",
"z S S S S S S S S S S S S S S S f : 4     . . O O o o # # # #         # # # # o o O O . . . .     S S S S S k q : g S S S S S S ",
"z S S S S S S S S S S S S S S S u t q     . . O O o o # # # #         # # # # o o O O . . . .     S S S S S N f u u S S S S S S ",
"z S S S S S S S S S S S S S S Y '         . . . . O O o o o o o o o o o o o o O O . . . .     S S S S S S J W ! Y S S S S S S S ",
"a v u k S S S S S S S S S S S W ]         . . . . O O o o o o o o o o o o o o O O . . . .     S S S S S S P ` W ] S N 4 t v S S ",
"y 8 u w S S S v f k N S S S S S S S S V 4     . . . . . .     O O O O     . . . . . .     A M f M A S S S S S S J S u 2 q g S S ",
"z C S S S S S f t w f S S S S S S S S S V     . . . . . .     O O O O     . . . . . .     V 4 u 4 V S S S S S S S S A A S S S S ",
"z S S I ) Y G S S A S S S S S S S S S     X X             . .     . . . .             X X     S V S S S S S S S S S S S J R } P ",
"z S G &.:.;.Y S S S S S S S S S S S S     X X             . .     . . . .             X X     S S S S S S S S S S S S S E #.:.$.",
"z S S I I Y S S S S S S S S S S S S S     X X * * * * X X                 X X * * * * X X     S S S S S S S S S S S S S S P P Y ",
"z S S S S S S S S S S S S S S S S S S     X X * * * * X X                 X X * * * * X X     S S S S S S S S S S S S S S S S S ",
"z S S S P S S S S S W J S A N S S S S S S     * * - - + + =.=.=.=.=.=.=.=.+ + - - * *     S S S P Y S S M A S S S S S S S Y P S ",
"z S Y ` ] ` S S P ] *.o.A w w q S S S S S     * * - - + + =.=.=.=.=.=.=.=.+ + - - * *     S S ~ +.@.` u w 4 v S S S S S W +.] ~ ",
"z S J W Y P S S S W T W Z f N M S Y P S S S W     * * = = & & & & & & & & = = * *     Y S S S P W W Y k N k S P T S S S Y W Y P ",
"z S S S S S S S S S S S S S S S ` *.+.W S S S     * * = = & & & & & & & & = = * *     S S S S S S S S S S S W ] *.~ S S S S S S ",
"z S S S S S S S S S S S S S S S ! ~ ] P S S S     3.3.+ + = = = = = = = = + + 3.3.    S S S S S S S S S S S J W W ~ S S S S S S ",
"z S S S S S S S S S S S S S S S S S S S S S S     3.3.+ + = = = = = = = = + + 3.3.    S S S S S S S S S S S S S S S S S S S S S ",
"z S S S S S S S S S S S S S S S S V S S S S S         @ @ + + + + + + + + @ @         S S S S S S S S S S S S S V S S S S S S S ",
"z S S S S S S S S S S S S S S S f > q g S S S         @ @ + + + + + + + + @ @         S S S S S S S S S S S k w : k S S S S S S ",
"z S S S S S S S S S S S S S S S q 1 : f S S S S S S S                         S S S S S S S S S S S S S S S g 4 3 w S S S S S S ",
"z S S S S S S S S S S S S S S Y ` ` S S S S S S S S S                         S S S S S S S S S S S S S S J W W P A S S S S S S ",
"a k u g S S S S S S S S S S S W ' ] W V v u g A S S S     $ $     * * $ $     k < f N S S S S S S S S S S P ` W ] S N 3 t v S S ",
"y q f t S S S k u j N S S S S S S S S V 4 f w A S S N     $ $     * * $ $     q 4 w N S S V M u M A S S S S S S S S u 3 w g S S ",
"z A S S S S S w 5 q u S S S S S S S S S A S S S S S j     $ $     - - $ $     A S S S S S N 3 t 3 V S S S S S S S S S S S S S S ",
"z S S I { R J S V N V S S S S S S S S S S S I } / P S     $ $     - - $ $     S S P ) _ S S v V v S S S S S S S S S S S P E  .P ",
"z S P ;.>.<.E S S S S S S S S S S S S S S S %.1.1.{ S S S         X X     S S S S | &.<.) S S S S S S S S S S S S S S S Q &.<.%.",
"z S S Y R E S S S S S S S S S S S S S S S S I R E G S S S         X X     S S S S J P R P S S S S S S S S S S S S S S S S I I E ",
"z S S S S S S S S S S S S S S S S S S S S S S S S S S S S S S     X X S S S S S S S S S S S S S S S S S S S S S S S S S S S S S ",
"z S S S P S S S S S Y S S S N S S S S S S S S P S S S S S Y P     X X S S S S S S S Y S S S S S P Y S S N S S S S S S S S Y P S ",
"z S Y ~ ] ` S S P ] *.o.A e w w S S S S S P ~ ` ' J S S ~ @.o.        V S S S S S ~ @.] Y S S ! +.+.` u w q M S S S S S W +.] ~ ",
"z S P ! Y Y S S S W W ~ Z u v k S Y J S S S ! P T S S S W W ~         S P P S S S W Y T S S S P ~ W T g v j A S Y S S S Y W Y P ",
"z S S S S S S S S S S S S S S S W @.] Y S S S S S S S S S S S S S S S Y ] +.Y S S S S S S S S S S S S S S S Y ` *.T S S S S S S ",
"z S S S S S S S S S S S S S S S W ~ ` P S S S S S S S S S S S S S S S Y W ~ T S S S S S S S S S S S S S S S P W ! W S S S S S S ",
"z S S S S S S S S S S S S S S S S S S S S S S S S S S S S S S S S S S S S S S S S S S S S S S S S S S S S S S S S S S S S S S S ",
"z S S S S S S S S S S S S S S S S S S S S S S S S S S S S S S S S S S S S S S S S S S S S S S S S S S S S S S S S S S S S S S S ",
"z S S S S S S S S S S S S S S S v 4 t v S S S S S S S S S S S S S S S v t 4 N S S S S S S S S S S S S S S S N d 2 M S S S S S S ",
"z S S S S S S S S S S S S S S S w 2 < g S S S S S S S S S S S S S S S f w 2 f S S S S S S S S S S S S S S S k q 4 w S S S S S S ",
"z S S S S S S S S S S S S S S I ` ^ S S S S S S S S S S S S S S S S P W W J S S S S S S S S S S S S S S S J W W P S S S S S S S ",
"a M f k S S S S S S S S S S S W ] o.W V N d j A S S S S S S S S S S Y ` ~ ` S v 1 g N S S S S S S S S S S P ' ! ] S N 4 u v S S ",
"9 4 w 2 S S S V v N S S S S S S S S S N 4 t 1 N S S A N k A S S S S S S S S S 4 ; 1 k S S S A k A S S S S S S S J S t : 1 t S S ",
"l k V V S S S t 4 q f S S S S S S S S S k V N S S S k 3 5 w S S S S S S S S S v N N S S S N 4 w 5 V S S S S S S S S N v N A S S "
};
