/* XPM */
static char *result[] = {
/* columns rows colors chars-per-pixel */
"64 64 128 2 ",
"   c #312F27",
".  c #0C6329",
"X  c #0E7030",
"o  c #474337",
"O  c #5A5748",
"+  c #796857",
"@  c #407C64",
"#  c #427D64",
"$  c #437D64",
"%  c #437E65",
"&  c #447E65",
"*  c #447E66",
"=  c #457E66",
"-  c #467E66",
";  c #467F66",
":  c #108239",
">  c #109631",
",  c #42AA52",
"<  c #4ABE52",
"1  c #468067",
"2  c #488067",
"3  c #488068",
"4  c #498068",
"5  c #498168",
"6  c #4A8168",
"7  c #4A8169",
"8  c #4A8269",
"9  c #4B8269",
"0  c #4C8269",
"q  c #4C826A",
"w  c #4C836A",
"e  c #4D836B",
"r  c #4D836C",
"t  c #4E836C",
"y  c #4F846D",
"u  c #4F856D",
"i  c #50856E",
"p  c #51856F",
"a  c #64BF99",
"s  c #65BF99",
"d  c #65C099",
"f  c #66C09A",
"g  c #67C09A",
"h  c #67C19B",
"j  c #68C19B",
"k  c #69C19B",
"l  c #6BC09B",
"z  c #6BC19B",
"x  c #68C29B",
"c  c #6CC19B",
"v  c #6FC09B",
"b  c #69C29C",
"n  c #6AC29C",
"m  c #6BC29C",
"M  c #6AC39C",
"N  c #6BC39D",
"B  c #6DC19C",
"V  c #6CC39D",
"C  c #6EC29C",
"Z  c #6EC29D",
"A  c #6FC29D",
"S  c #6FC39D",
"D  c #6CC49E",
"F  c #6DC49E",
"G  c #6EC49E",
"H  c #6EC49F",
"J  c #6EC59F",
"K  c #6FC59F",
"L  c #70C39E",
"P  c #71C39E",
"I  c #71C49E",
"U  c #71C49F",
"Y  c #70C59F",
"T  c #72C49F",
"R  c #72C4A0",
"E  c #73C5A0",
"W  c #70C6A0",
"Q  c #71C6A0",
"!  c #71C6A1",
"~  c #72C6A0",
"^  c #72C7A0",
"/  c #72C7A1",
"(  c #73C7A1",
")  c #74C5A1",
"_  c #74C6A1",
"`  c #74C7A1",
"'  c #74C6A2",
"]  c #74C7A2",
"[  c #76C7A3",
"{  c #77C7A4",
"}  c #74C8A2",
"|  c #75C8A2",
" . c #75C8A3",
".. c #75C9A3",
"X. c #76C8A3",
"o. c #76C9A3",
"O. c #76C9A4",
"+. c #77C9A4",
"@. c #77C9A5",
"#. c #77CAA5",
"$. c #77CAA6",
"%. c #78CAA5",
"&. c #79CAA5",
"*. c #78CAA6",
"=. c #78CBA6",
"-. c #79CBA7",
";. c #7ACBA6",
":. c #7BCBA6",
">. c #7CCCA7",
",. c #79CBA8",
"<. c #7ACBA8",
"1. c #7ACCA8",
"2. c #7ACCA9",
"3. c #7BCCA9",
"4. c #7BCDA9",
"5. c #7DCCA8",
"6. c #7ECCA8",
"7. c #7ECDA9",
"8. c #7FCDA9",
"9. c #7CCDAA",
"0. c #80CDAA",
"q. c #80CEAA",
"w. c #81CEAA",
"e. c #81CEAB",
"r. c #82CEAB",
"t. c #82CFAB",
"y. c #83CFAC",
"u. c #84D0AC",
/* pixels */
"v I U T _ R I I U E { E I A c Z P I I I I I T _ E I I I T [ ) U S l Z P I I I I I T { E T I P T ' [ T L z C L I I I I I U [ _ T ",
"P (  .1.-.*.( ( } 3.4.9.! g M b ( ( ( ( ( } 1.$.-.} ( ( -.9.9.X X X X / ( ( ( ( ( 1.2.,. .( ( #.9.9.-.n N h W ( ( ( ( ( #.4.-.#.",
"P ( ] O.} } ( ( ( O. .O.~ F Q Q ( ..} ( ( ( O.} } ( . . . . X > > > > X . . . . ( O.}  .( ( ( ] O.O. .K Q Y ( } O.( ( (  ...} ] ",
"P ( ( ( ( ( ( ( ( ( ( ( ( ( ( ( *.4.3.O.( ( ( ( ( . : > > : > > > > > > : > > : . ( ( ( ( ( ( ( ( ( ( ( ( ( O.-.4.#.( ( ( ( ( ( ",
"P ( ( ( ( ( ( ( ( ( ( ( ( ( ( (  .O.O.} ( ( . . . > > > > > > > > > > > > > > > > . . . ( ( ( ( ( ( ( ( ( ( (  . ...( ( ( ( ( ( ",
"P ( ( ( ( ( ( ( ( ( ( ( ( ( ( ( ( ( ( ( ( . > > X > > , , > : , , , , : > , , > > X > > . ( ( ( ( ( ( ( ( ( ( ( ( ( ( ( ( ( ( ( ",
"P ( ( ( ( ( ( ( ( ( ( ( ( ( ( ( ( ~ ( ( . > > > > > , , , , , , , , , , , , , , > > > > > . ( ( ( ( ( ( ( ( ( ( ~ ( ( ( ( ( ( ( ",
"P ( ( ( ( ( ( ( ( ( ( ( ( ( ( ( F d j K . > > > : : , , , , < < , , < < , , , , : : > > > . ( ( ( ( ( ( ( ( Y n s G ( ( ( ( ( ( ",
"P ( ( ( ( ( ( ( ( ( ( ( ( ( ( ( H F n . > > > : , , , , < < < < < < < < < < , , , , : > > > . ( ( ( ( ( ( ( Q J F F ( ( ( ( ( ( ",
"P ( ( ( ( ( ( ( ( ( ( ( ( ( ( O.. . . . : > > > , , , , < < < < < < < < < < , , , , > > > : . . . . ( ( ( } =.*.O.] ( ( ( ( ( ( ",
"A K V G ( ( ( ( ( ( ( ( ( ( ( . : > > > > : , , , , , , , < < < < < < < < , , , , , , , : > > > > : . ( ( } *.O.-.( Q h m K ( ( ",
"B b F N ( ( ( K V G Q ( ( ( . > > > > > > , , , , , , , < < < < < < < < < < , , , , , , , > > > > > > . ( ( ( ( ( ( V j n G ( ( ",
"P / ( ( ( ( ( F N n F ( ( ( . > > > > > > , , , , , , , < < < < < < < < < < , , , , , , , > > > > > > . ( ( ( ( ( ( ( ( ( ( ( ( ",
"P ( ] &.6.&.| ( ( / ( . . . : : > > > > > , , , , , , , , < < < , , < < < , , , , , , , , > > > > > : : . . . ( ( ( ( ( X.;.w.o.",
"P ( } y.e.u.+.( ( ( . X : : X : : > > > > : , , , , , , , , , , , , , , , , , , , , , , : > > > > : : X : : X . ( ( ( ( %.q.r.0.",
"P ( ( |  .X.( ( ( . : : : X : > > > > > > > : > , , , , , , , , , , , , , , , , , , > : > > > > > > > : X : : : . ( ( ( ( } } X.",
"P ( ( ( ( ( ( ( ( . X : X > > > > > > > > > : , , , , , , , , , , , , , , , , , , , , : > > > > > > > > > X : X . ( ( ( ( ( ( ( ",
"P ( ( ]  .( ( ( . X : : X > > > > > > > > > > , , , , , , , , , , , , , , , , , , , , > > > > > > > > > > X : : X . ( ( ( @. .( ",
"P (  .*.-.*.( ( . : : : X : > > > > > > > > > > , : > , , , , , , , , , , , , > : , > > > > > > > > > > : X : : : . ( ( O.9.<.#.",
"P ( ] O. . .( ( . : : : : X : : > > > > > > > > > : , , , , , , , , , , , , , , : > > > > > > > > > : : X : : : : . ( (  .O. .} ",
"P ( ( ( ( ( ( ( ( . : : : : X > > > > > > > > > > > , , , , , , , , , , , , , , > > > > > > > > > > > X : : : : . #.( ( ( ( ( ( ",
"P ( ( ( ( ( ( . . . . X : : X > > > > > > > > > > > > , , > : , , , , : > , , > > > > > > > > > > > > X : : X . . . . ( ( ( ( ( ",
"P ( ( ( ( ( . . X X : : : : : X > > : > > > > > > > > > : : > > > > > > : : > > > > > > > > > : > > X : : : : : X X . . ( ( ( ( ",
"P ( ( ( ( ( . X X : : : : : : : X X : : > > > > > > > > > > > > > > > > > > > > > > > > > > : : X X : : : : : : : X X . ( ( ( ( ",
"P ( ( ( ( . X X X : : : : : : : : : : : > > > > > > > > > > > > > > > > > > > > > > > > > > : : : : : : : : : : : X X X . ( ( ( ",
"P ( ( ( ( . X X : : : : : : : : : : : : > > > : : > > > > > > > > > > > > > > > > : : > > > : : : : : : : : : : : : X X . ( ( ( ",
"P ( ( ( ( . X X : X : : : : : : : : : > > > > : : > > > > > > > > > > > > > > > > : : > > > > : : : : : : : : : X : X X . ( ( ( ",
"A Y V K ( . X X . : : : : : : : : : : > > > > > > > > > > > > > > > > > > > > > > > > > > > > : : : : : : : : : : . X X . Y ( ( ",
"B x V n ( . . X . : : : : : : : : : : > > > > > > > > > > > > > > > > > > > > > > > > > > > > : : : : : : : : : : . X . . G ( ( ",
"P ^ ( ( ( ( . X X . : : : X X : : : : : > > > > > > > > > > > > > > > > > > > > > > > > > > : : : : : X X : : : . X X . ( ( ( ( ",
"P ( ( | &. .. X . X : : : X X : : : : : : : > > > > > > > > > > > > > > > > > > > > > > : : : : : : : X X : : : X . X . ] X.:.} ",
"P ( ` 8.w.q.. X . : : : : : : : : : : : : X > > > > > > > > > > > > > > > > > > > > > > X : : : : : : : : : : : : . X . o.5.w.6.",
"P ( ( | | . . X . : : : : : : : : : : : : X : > X > > > > > > > > > > > > > > > > X > : X : : : : : : : : : : : : . X . . } }  .",
"P ( ( ( ( . X X X . : X : : : X : : : : : : X X : > > > > > > > > > > > > > > > > : X X : : : : : : X : : : X : . X X X . ( ( ( ",
"P ( ( ( } . X X X X . : : : X . : : : : : : : : : : > > > X > > > > > > X > > > : : : : : : : : : : . X : : : . X X X X .  .} ( ",
"P (  .*.-.. X X X X X . . . . X . : X : : : : : : : : : : : X > > > > X : : : : : : : : : : : X : . X . . . . X X X X X . 3.-.#.",
"P ( ] O. .. X X X X X X X X X X X . . . : : : : : : : : : : : : : : : : : : : : : : : : : : . . . X X X X X X X X X X X . O. .} ",
"P ( ( ( ( ( . X X . X X X X X X X X X . X : : : : : : : : : : : : : : : : : : : : : : : : X . X X X X X X X X X . X X . ( ( ( ( ",
"P ( ( ( ( ( ( . . X X X X X X X X X X X : : : : : : : : : : : : : : : : : : : : : : : : : : X X X X X X X X X X X . . ( ( ( ( ( ",
"P ( ( ( ( ( ( . X X X X X X X X X X X X : : : : : : : : : : : : : : : : : : : : : : : : : : X X X X X X X X X X X X . ( ( ( ( ( ",
"P ( ( ( ( ( ( . X . X X X X X X X X X X . X : : : : : : : : : : : : : : : : : : : : : : X . X X X X X X X X X X . X . ( ( ( ( ( ",
"P ( ( ( ( ( ( . . X X X X X . X X X X X . : : : : : : : : : : : : : : : : : : : : : : : : . X X X X X . X X X X X . . ( ( ( ( ( ",
"P ( ( ( ( ( ( ( . X X X X . X X X X X X X . : : X : : : : : : : : : : : : : : : : X : : . X X X X X X X . X X X X . ( ( ( ( ( ( ",
"P ( ( ( ( ( ( ( . . X X X . X X X X X X X X . . . : : : : X : : : : : : X : : : : . . . X X X X X X X X . X X X . . ( ( ( ( ( ( ",
"A K V G ( ( ( ( ( . . . . . X X X X . X X X X X . X : : X . : : : : : : . X : : X . X X X X X . X X X X . . . . . ( Q h N Y ( ( ",
"B b F N ( ( ( K V J . . . . . X X . . X X X X X X . . . . . : : : : : : . . . . . X X X X X X . . X X . . . . . 9 ( V h n G ( ( ",
"P / ( ( ( ( ( n k b V 9 9 9 . . . . . . X X X X X X X X X X . : : : : . X X X X X X X X X X . . . . . . 9 9 9 9 9 ( ( ( ( ( ( ( ",
"P ( ( | ;.X.] ( ~ Q ~ 9 9 9 9 . .     . X X X X . X X X X X X X X X X X X X X X X . X X X X .     . . 9 9 9 9 9 9 ( ( ( } o.>.} ",
"P ( } q.e.t.o.( ( ( 9 9 9 9 9 9   o O   . X X X . X X X X X X X X X X X X X X X X . X X X .   O o   9 9 9 9 9 9 9 9 ( ( +.8.t.7.",
"P ( (  .X.o.( ( ( ( 9 9 9 9 9 9   O O   . . . . . . . X X . X X X X X X . X X . . . . . . .   O O   9 9 9 9 9 9 9 9 ( ( ( | | o.",
"P ( ( ( ( ( ( ( ( ( 9 9 9 9 9 9   O O O   . . .   . . . . . . X X X X . . . . . .   . . .   O O O   9 9 9 9 9 9 9 9 ( ( ( ( ( ( ",
"P ( ( ( } ( ( ( ( ( q 9 9 9 6 9 9   o O o         . . . . . . . . . . . . . . . .         o O o   q 9 9 6 9 9 9 9 9 ( ( (  .} ( ",
"P (  .#.-.*.( ( } -.9.u 8 - = = 9 9       o o O +   . .     . . . . . .     . .   + O o o       i i t ; = * 5 9 9 ( ( ( O.3.-.#.",
"P ( } @. . .( ( ( O.O.e 7 ; 4 3 9 q 0 9 9   o + + O     O o   . . . .   o O     O + + o   9 9 0 e e w 2 4 3 8 9 q ( ( (  .O. .} ",
"P ( ( ( ( ( ( ( ( ( ( 9 9 9 9 9 e i y q 9   O + O O o O O o O         O o O O o O O + O   9 9 9 9 9 9 9 9 9 q t p ..( ( ( ( ( ( ",
"P ( ( ( ( ( ( ( ( ( ( ( 9 9 9 9 e e t 0 9   O + O o o O O O + O O O O + O O O o o O + O   9 9 9 9 9 9 9 9 9 0 e @.O.( ( ( ( ( ( ",
"P ( ( ( ( ( ( ( ( ( ( ( 9 9 9 9 9 9 9 9 9   O O o o O O O O + + + + + + O O O O o o O O   9 9 9 9 9 9 9 9 9 9 9 ( ( ( ( ( ( ( ( ",
"P ( ( ( ( ( ( ( ( ( ( ( ( 9 9 9 9 9 9 9 9 9     o   O O O O O + + + + O O O O O   o     9 9 9 9 9 9 9 9 9 9 9 ( ( ( ( ( ( ( ( ( ",
"P ( ( ( ( ( ( ( ( ( ( ( ( ( 9 9 4 & ; 4 9 9 9 9     O O O o O o o o o O o O O O     9 9 9 9 9 9 9 9 9 9 9 9 Q D g W ( ( ( ( ( ( ",
"P ( ( ( ( ( ( ( ( ( ( ( ( ( ( 9 = $ # 2 9 9 9 9 9 9 o O O o             o O O o 9 9 9 9 9 9 9 9 9 9 9 9 9 ( K b j n ( ( ( ( ( ( ",
"P ( ( ( ( ( ( ( ( ( ( ( ( ( ( | t r 9 9 9 9 9 9 9 9 9 o     9 9 9 9 0 e     o 9 9 9 9 9 9 9 9 9 9 9 9 9 ( ] O.O.} ( ( ( ( ( ( ( ",
"A W F K ( ( ( ( ( ( ( ( ( ( ( O.-.1.e 6 6 1 3 8 9 9 9 9 9 9 9 9 9 9 q t e t 9 4 # 2 6 9 9 9 9 9 9 9 ( ( ( } =.@.-.( Q j V Y ( ( ",
"c j n g ( ( ( ~ Y Q ( ( ( ( ( ( ( ( ( Q & ; # 6 9 9 8 6 3 8 9 9 9 9 9 9 9 9 9 & @ # 3 9 9 9 8 3 / ( ( ( ( ( ( ( ] ( N a f N ( ( ",
"L K ~ ~ ( ( ( N j b F ( ( ( ( ( ( ( ( ( K ~ 6 9 9 9 3 % & = 9 9 9 9 9 9 9 9 9 4 6 6 9 9 9 6 j n k ~ ( ( ( ( ( ( ( ( Q Y Q / ( ( "
};
